HIERARCHY
ROOT Hips
{
	OFFSET 0.00000 0.00000 0.00000
	CHANNELS 6 Xposition Yposition Zposition Yrotation Zrotation Xrotation 
	JOINT Lumbar
	{
		OFFSET 0 0 0
		CHANNELS 3 Zrotation Xrotation Yrotation
		JOINT Neck
		{
			OFFSET 0.00 0.2701 0.00
			CHANNELS 3 Zrotation Xrotation Yrotation
			End Site
			{
				OFFSET 0.00 0.1379 0.00
			}
		}
		JOINT RightShoulder
		{
			OFFSET 0.0119 0.2289 0.1181
			CHANNELS 3 Zrotation Xrotation Yrotation
			JOINT RightElbow
			{
				OFFSET 0.00 -0.1475 0.00
				CHANNELS 2 Zrotation Yrotation
				JOINT RightWrist
				{
					OFFSET 0.00 -0.1605 0.00
					CHANNELS 2 Zrotation Xrotation
					End Site
					{
						OFFSET 0.0040 -0.1068 0.0006
					}
				}
			}
		}
		JOINT LeftShoulder
		{
			OFFSET 0.0119 0.2289 -0.1181
			CHANNELS 3 Zrotation Xrotation Yrotation
			JOINT LeftElbow
			{
				OFFSET 0.00 -0.1475 0.00
				CHANNELS 2 Zrotation Yrotation
				JOINT LeftWrist
				{
					OFFSET 0.00 -0.1605 0.00
					CHANNELS 2 Zrotation Xrotation
					End Site
					{
						OFFSET 0.0040 -0.1068 -0.0006
					}
				}
			}
		}
	}
	JOINT RightHip
	{
		OFFSET 0.0316 -0.0424 0.0458
		CHANNELS 3 Zrotation Xrotation Yrotation
		JOINT RightKnee
		{
			OFFSET 0.00 -0.2438 0.00
			CHANNELS 1 Zrotation
			JOINT RightAnkle
			{
				OFFSET 0.00 -0.2449 0.00
				CHANNELS 3 Zrotation Xrotation Yrotation
				End Site
				{
					OFFSET 0.1237 -0.0542 0.0051
				}
			}
		}
	}
	JOINT LeftHip
	{
		OFFSET 0.0316 -0.0424 -0.0458
		CHANNELS 3 Zrotation Xrotation Yrotation
		JOINT LeftKnee
		{
			OFFSET 0.00 -0.2438 0.00
			CHANNELS 1 Zrotation
			JOINT LeftAnkle
			{
				OFFSET 0.00 -0.2449 0.00
				CHANNELS 3 Zrotation Xrotation Yrotation
				End Site
				{
					OFFSET 0.1237 -0.0542 -0.0051
				}
			}
		}
	}
}
MOTION
Frames: 14
Frame Time: 0.02
0 0.57926 0 179.63771 0 -2.50577 3.11361 2.46231 -2.09357 -20.01997 2.34052 -0.40487 -36.70597 -70.86078 -89.00459 21.92542 51.07883 -33.49878 0.43206 -29.72739 73.3392 83.80624 17.19675 -69.51042 -30.54742 2.20231 -3.17455 6.01915 1.30308 -11.40007 2.77454 -5.66429 -11.69416 -2.29595 3.3687 1.27048 -7.7308 5.59471 5.96373 9.09528
-0.00054 0.57917 -0.00084 179.69795 0 -2.48205 3.19671 2.41623 -1.95302 -20.09036 2.41007 -0.554 -36.63372 -70.86164 -89.00422 21.92317 50.95144 -33.48041 0.3718 -29.19021 73.3217 83.82171 17.27868 -70.0088 -30.5884 2.27915 -3.24314 6.08165 1.27289 -11.38465 2.81927 -5.67498 -11.71903 -2.30449 3.43095 1.2843 -7.79848 5.64383 5.97998 9.04052
-0.00107 0.57908 -0.00169 179.75801 0 -2.45835 3.27943 2.37027 -1.81378 -20.16018 2.47937 -0.70171 -36.5626 -70.86296 -89.00384 21.9205 50.82537 -33.46239 0.31207 -28.65409 73.3039 83.83685 17.36019 -70.50532 -30.62857 2.35557 -3.31093 6.14411 1.24282 -11.37007 2.86379 -5.68561 -11.74381 -2.31215 3.49313 1.29788 -7.86731 5.69279 5.99616 8.98618
-0.0016 0.57899 -0.00253 179.81772 0 -2.43471 3.36187 2.32454 -1.67841 -20.2289 2.54827 -0.84552 -36.49366 -70.86577 -89.00347 21.91676 50.70436 -33.44482 0.25382 -28.12008 73.28438 83.85102 17.44095 -70.99853 -30.66548 2.43091 -3.37697 6.20664 1.21264 -11.35786 2.90799 -5.69594 -11.76778 -2.31758 3.55535 1.30973 -7.93976 5.74146 6.01236 8.93373
-0.00215 0.57889 -0.00337 179.87903 0 -2.41097 3.44628 2.27785 -1.52251 -20.30406 2.61918 -1.01037 -36.41123 -70.86027 -89.00313 21.91947 50.5578 -33.42391 0.18769 -27.57864 73.27355 83.87058 17.52583 -71.50837 -30.71918 2.51182 -3.45317 6.26835 1.1827 -11.33211 2.95393 -5.70765 -11.79523 -2.33627 3.61702 1.32969 -7.99107 5.79153 6.02862 8.87216
-0.00265 0.57881 -0.00423 179.93706 0 -2.38731 3.5261 2.23305 -1.41022 -20.3651 2.68584 -1.13029 -36.35871 -70.87262 -89.00269 21.90799 50.46458 -33.41075 0.13833 -27.05093 73.24461 83.87852 17.60181 -71.98314 -30.73762 2.58098 -3.50723 6.33202 1.15251 -11.33567 2.99611 -5.71656 -11.81582 -2.32589 3.68006 1.33317 -8.08835 5.83867 6.0446 8.82934
-0.00306 0.57876 -0.00515 179.98589 0 -2.36455 3.59791 2.19397 -1.4195 -20.39106 2.74153 -1.12699 -36.37931 -70.93392 -89.00226 21.86037 50.52848 -33.41356 0.13521 -26.56874 73.1608 83.85529 17.65559 -72.36615 -30.65288 2.61735 -3.50432 6.4005 1.11878 -11.41775 3.02915 -5.71656 -11.81281 -2.24052 3.74646 1.28368 -8.30883 5.87783 6.06132 8.84432
-0.00341 0.57873 -0.0061 180.03147 0 -2.34169 3.66427 2.15662 -1.47257 -20.40217 2.79284 -1.07814 -36.43177 -71.01327 -89.00169 21.79791 50.64445 -33.42502 0.14903 -26.09834 73.05948 83.82018 17.70018 -72.71352 -30.53337 2.64199 -3.47831 6.47112 1.08525 -11.52983 3.0582 -5.71391 -11.80363 -2.12482 3.8144 1.21879 -8.57643 5.91393 6.07747 8.87723
-0.00377 0.5787 -0.00705 180.07875 0 -2.31843 3.73022 2.11818 -1.50497 -20.41745 2.84571 -1.04959 -36.47601 -71.08474 -89.00098 21.74006 50.73031 -33.43628 0.15515 -25.61711 72.96928 83.78982 17.74733 -73.07406 -30.43361 2.67224 -3.46012 6.54124 1.05353 -11.63001 3.08829 -5.71326 -11.80042 -2.01935 3.88201 1.16586 -8.82549 5.95151 6.09292 8.89795
-0.00421 0.57866 -0.00797 180.12518 0 -2.29713 3.80851 2.08125 -1.54082 -20.44325 2.90039 -1.02282 -36.49428 -71.15518 -89.00112 21.69082 50.84353 -33.4325 0.16125 -25.15953 72.86587 83.76202 17.80064 -73.44624 -30.31781 2.70117 -3.45313 6.60942 1.01399 -11.72335 3.12164 -5.70936 -11.78428 -1.92854 3.94807 1.09234 -9.06329 5.98911 6.11249 8.93542
-0.00447 0.57863 -0.00895 180.17247 0 -2.27162 3.85959 2.04128 -1.57963 -20.44404 2.95027 -0.9814 -36.57363 -71.23162 -88.99947 21.62062 50.91196 -33.46119 0.17144 -24.65492 72.78567 83.7263 17.83977 -73.78707 -30.2264 2.73022 -3.41747 6.68208 0.9905 -11.83744 3.14724 -5.71146 -11.79309 -1.80043 4.01771 1.05759 -9.3346 6.02544 6.12325 8.94264
-0.00425 0.57861 -0.01009 180.22427 0 -2.23536 3.83845 1.99504 -1.6182 -20.37596 2.98756 -0.91184 -36.81735 -71.32373 -88.99275 21.49223 50.84531 -33.58492 0.18883 -24.02169 72.77528 83.66938 17.83468 -74.03808 -30.21711 2.76095 -3.3066 6.76722 1.01371 -12.00756 3.15258 -5.73197 -11.87696 -1.5728 4.0969 1.13755 -9.69694 6.06339 6.11035 8.85865
-0.00384 0.57859 -0.01129 180.27683 0 -2.19471 3.78968 1.94519 -1.65786 -20.28403 3.02011 -0.82889 -37.11972 -71.42041 -88.98428 21.34419 50.73144 -33.73935 0.20985 -23.33979 72.78872 83.6052 17.81687 -74.26063 -30.23236 2.7924 -3.16767 6.85667 1.05264 -12.19684 3.15022 -5.75837 -11.98541 -1.30929 4.17962 1.25639 -10.08959 6.09931 6.08844 8.74417
-0.00351 0.57857 -0.01247 180.32812 0 -2.1555 3.75269 1.89531 -1.69545 -20.20506 3.05531 -0.75133 -37.39431 -71.51293 -88.97673 21.20752 50.63847 -33.87517 0.22908 -22.67764 72.79015 83.54595 17.80986 -74.50455 -30.2323 2.82459 -3.04312 6.94373 1.08274 -12.37277 3.15131 -5.78131 -12.0794 -1.06496 4.26071 1.35478 -10.46173 6.13334 6.07039 8.6459
